<svg width="16" height="16" viewBox="0 0 16 16" fill="none" xmlns="http://www.w3.org/2000/svg">
<g clip-path="url(#clip0_303_17172)">
<path d="M3.12813 10.6036L6.2632 8.84445L6.31568 8.69111L6.2632 8.60638H6.10992L5.58535 8.57413L3.79391 8.5257L2.24048 8.46114L0.735418 8.38045L0.356149 8.2997L0.00109863 7.83166L0.0373944 7.59763L0.356149 7.38384L0.812118 7.42419L1.8208 7.49273L3.33389 7.59763L4.43142 7.66219L6.05744 7.83166H6.31568L6.35198 7.72675L6.2632 7.66219L6.19465 7.59763L4.62908 6.53647L2.93445 5.41479L2.0468 4.76918L1.56661 4.44233L1.32455 4.13572L1.21965 3.46596L1.65545 2.98577L2.24048 3.02618L2.38977 3.06652L2.98289 3.52243L4.24981 4.50297L5.9041 5.7214L6.14622 5.92311L6.24303 5.85451L6.25517 5.80613L6.14622 5.62453L5.24642 3.99851L4.28611 2.34422L3.85841 1.65827L3.74547 1.24675C3.70513 1.07723 3.67687 0.936031 3.67687 0.762521L4.17318 0.0887159L4.44748 0L5.10927 0.0887782L5.38768 0.330833L5.7992 1.27097L6.46497 2.75181L7.49788 4.7652L7.80051 5.36237L7.96188 5.91514L8.02245 6.08461H8.12736V5.98774L8.21202 4.85398L8.36941 3.46191L8.52275 1.67041L8.57523 1.16613L8.82538 0.560872L9.32163 0.234023L9.70899 0.419611L10.0277 0.87558L9.98336 1.17005L9.79372 2.40075L9.42255 4.32946L9.18043 5.62061H9.32163L9.48306 5.45918L10.1367 4.59169L11.2342 3.2198L11.7184 2.67511L12.2832 2.0739L12.6464 1.78746H13.3323L13.8366 2.53796L13.6107 3.31262L12.9046 4.20837L12.3195 4.96691L11.4803 6.09668L10.9557 7.00053L11.0042 7.07312L11.1293 7.06104L13.0257 6.65756L14.0505 6.47191L15.2731 6.2621L15.8259 6.52034L15.8864 6.78263L15.6685 7.31928L14.3612 7.64202L12.8279 7.9487L10.5442 8.4894L10.516 8.50957L10.5483 8.54991L11.5771 8.64672L12.017 8.67094H13.0943L15.0996 8.82023L15.6241 9.16725L15.9388 9.59091L15.8864 9.91365L15.0794 10.3252L13.99 10.067L11.4481 9.46179L10.5765 9.24389H10.4554V9.31654L11.1817 10.0266L12.5132 11.2291L14.1797 12.7785L14.2643 13.1618L14.0505 13.4643L13.8245 13.4321L12.3599 12.3306L11.795 11.8343L10.516 10.757H10.4313V10.8699L10.7258 11.3017L12.2832 13.6419L12.3639 14.3601L12.251 14.5942L11.8475 14.7354L11.4036 14.6546L10.4917 13.3756L9.55167 11.9351L8.79307 10.644L8.7003 10.6965L8.25243 15.5181L8.04262 15.7642L7.55839 15.9498L7.15497 15.6432L6.94105 15.1469L7.1549 14.1664L7.41315 12.8874L7.62295 11.8706L7.81258 10.6077L7.92558 10.1881L7.91749 10.1598L7.82473 10.1719L6.87251 11.4792L5.42398 13.4361L4.27808 14.6627L4.00371 14.7717L3.52757 14.5255L3.57196 14.0857L3.83823 13.6944L5.42392 11.6769L6.38018 10.4261L6.99758 9.70391L6.99353 9.59894H6.95724L2.74476 12.3346L1.99425 12.4314L1.67145 12.1289L1.71179 11.6326L1.86513 11.4711L3.13206 10.5996L3.12813 10.6036Z" fill="#D97757"/>
</g>
<defs>
<clipPath id="clip0_303_17172">
<rect width="15.94" height="15.94" fill="white"/>
</clipPath>
</defs>
</svg>
